<svg width="211" height="60" viewBox="0 0 211 60" fill="none" xmlns="http://www.w3.org/2000/svg">
<g id="Frame" clip-path="url(#clip0_3215_566)">
<g id="Group">
<g id="Group_2">
<path id="Vector" d="M211 59.0674H145.5V58.1342H210V49.2695H211V59.0674Z" fill="#BCBCBC"/>
</g>
<g id="Group_3">
<path id="Vector_2" d="M78.8016 56.3607L78.5016 56.9205C78.0016 56.6406 77.6016 56.5473 77.3016 56.5473C76.9016 56.5473 76.6016 56.7339 76.6016 56.9205C76.6016 57.7603 78.9016 57.2938 78.9016 58.6935C78.9016 59.44 78.2016 59.8132 77.3016 59.8132C76.6016 59.8132 76.0016 59.5333 75.6016 59.16L75.9016 58.6002C76.3016 58.9734 76.9016 59.16 77.3016 59.16C77.8016 59.16 78.1016 58.9734 78.1016 58.6935C78.1016 57.8537 75.8016 58.3202 75.8016 56.9205C75.8016 56.2673 76.4016 55.8008 77.3016 55.8008C77.9016 55.9874 78.4016 56.174 78.8016 56.3607Z" fill="#BCBCBC"/>
<path id="Vector_3" d="M82.7031 59.9074V55.9883H83.4031V59.9074H82.7031Z" fill="#BCBCBC"/>
<path id="Vector_4" d="M90.4 59.9074L88.2 57.108V59.9074H87.5V55.9883H88.2L90.4 58.7877V55.9883H91.1V59.9074H90.4Z" fill="#BCBCBC"/>
<path id="Vector_5" d="M98.6984 56.6392L98.2984 57.1058C97.9984 56.8259 97.5984 56.6392 97.0984 56.6392C96.2984 56.6392 95.5984 57.1991 95.5984 58.0389C95.5984 58.7854 96.2984 59.4386 97.0984 59.4386C97.4984 59.4386 97.9984 59.252 98.2984 58.9721L98.6984 59.4386C98.2984 59.8119 97.6984 60.0918 97.0984 60.0918C95.8984 60.0918 94.8984 59.252 94.8984 58.1322C94.8984 57.0125 95.8984 56.1727 97.0984 56.1727C97.6984 55.9861 98.2984 56.266 98.6984 56.6392Z" fill="#BCBCBC"/>
<path id="Vector_6" d="M103.098 56.6415V57.6679H105.198V58.2278H103.098V59.3475H105.498V59.9074H102.398V55.9883H105.398V56.5482H103.098V56.6415Z" fill="#BCBCBC"/>
<path id="Vector_7" d="M114.3 59.9074V56.5482H113.5V55.9883H115V59.9074H114.3Z" fill="#BCBCBC"/>
<path id="Vector_8" d="M119.102 59.6279L119.402 59.1613C119.702 59.348 120.002 59.4413 120.302 59.4413C121.102 59.4413 121.502 58.8814 121.502 58.0416C121.302 58.4148 120.902 58.6015 120.402 58.6015C119.602 58.6015 119.102 58.1349 119.102 57.3884C119.102 56.5486 119.702 56.082 120.602 56.082C121.702 56.082 122.302 56.8285 122.302 57.9483C122.302 59.1613 121.602 60.0012 120.502 60.0012C119.902 60.0012 119.402 59.8145 119.102 59.6279ZM121.302 57.2951C121.302 56.9218 121.002 56.5486 120.402 56.5486C119.902 56.5486 119.502 56.8285 119.502 57.2951C119.502 57.7617 119.802 58.0416 120.302 58.0416C121.002 58.0416 121.302 57.6683 121.302 57.2951Z" fill="#BCBCBC"/>
<path id="Vector_9" d="M128.703 57.0147C128.703 57.388 128.503 57.6679 128.103 57.8545C128.603 58.0412 128.903 58.4144 128.903 58.881C128.903 59.6275 128.303 60.0007 127.303 60.0007C126.303 60.0007 125.703 59.5342 125.703 58.881C125.703 58.4144 126.003 58.0412 126.603 57.8545C126.203 57.6679 125.903 57.388 125.903 57.0147C125.903 56.3615 126.403 55.9883 127.303 55.9883C128.103 55.9883 128.703 56.3615 128.703 57.0147ZM126.303 58.7877C126.303 59.2542 126.603 59.4408 127.203 59.4408C127.803 59.4408 128.103 59.1609 128.103 58.7877C128.103 58.4144 127.803 58.1345 127.203 58.1345C126.703 58.1345 126.303 58.3211 126.303 58.7877ZM126.503 57.0147C126.503 57.388 126.803 57.5746 127.303 57.5746C127.803 57.5746 128.103 57.388 128.103 57.0147C128.103 56.6415 127.803 56.4548 127.303 56.4548C126.803 56.4548 126.503 56.6415 126.503 57.0147Z" fill="#BCBCBC"/>
<path id="Vector_10" d="M133.305 56.6415V57.4813H133.905C134.805 57.4813 135.405 57.9478 135.405 58.6943C135.405 59.5342 134.805 60.0007 133.805 60.0007C133.305 60.0007 132.705 59.8141 132.305 59.5342L132.605 58.9743C132.905 59.2542 133.405 59.3475 133.705 59.3475C134.205 59.3475 134.605 59.0676 134.605 58.601C134.605 58.2278 134.305 57.9478 133.705 57.9478C133.405 57.9478 132.905 57.9478 132.605 58.0412V55.9883H135.205V56.5482H133.305V56.6415Z" fill="#BCBCBC"/>
</g>
<g id="Group_4">
<path id="Vector_11" d="M65.5 59.0674H0V49.2695H1V58.1342H65.5V59.0674Z" fill="#BCBCBC"/>
</g>
<g id="Group_5">
<path id="Vector_12" d="M11.2 32.2865C11.4 32.6598 11.5 32.9397 11.7 33.313C11.8 32.9397 12 32.5664 12.2 32.2865C12.4 31.9133 12.5 31.6333 12.7 31.3534L17.6 22.3954C17.7 22.2088 17.8 22.1154 17.9 22.0221C18 21.9288 18.1 21.8355 18.2 21.8355C18.3 21.8355 18.4 21.7422 18.6 21.7422C18.7 21.7422 18.9 21.7422 19.1 21.7422H22.5V39.3783H18.6V29.3005C18.6 28.8339 18.6 28.2741 18.7 27.7142L13.7 36.7655C13.5 37.0455 13.3 37.2321 13.1 37.4187C12.8 37.6053 12.5 37.6053 12.2 37.6053H11.6C11.3 37.6053 11 37.512 10.7 37.4187C10.4 37.2321 10.2 37.0455 10.1 36.7655L5.1 27.7142C5.1 27.9941 5.2 28.2741 5.2 28.554C5.2 28.8339 5.2 29.1139 5.2 29.3005V39.4716H1V21.7422H4.4C4.6 21.7422 4.8 21.7422 4.9 21.7422C5 21.7422 5.2 21.7422 5.3 21.8355C5.4 21.8355 5.5 21.9288 5.6 22.0221C5.7 22.1154 5.8 22.2088 5.9 22.3954L10.8 31.3534C10.9 31.6333 11 32.0066 11.2 32.2865Z" fill="#BCBCBC"/>
<path id="Vector_13" d="M35.6031 39.4716H31.2031V21.7422H35.6031V39.4716Z" fill="#BCBCBC"/>
<path id="Vector_14" d="M47.1984 21.7422C47.2984 21.7422 47.3984 21.7422 47.5984 21.8355C47.6984 21.8355 47.7984 21.9288 47.8984 22.0221C47.9984 22.1154 48.0984 22.2088 48.1984 22.3954L57.1984 33.033C57.1984 32.6598 57.0984 32.3798 57.0984 32.0066C57.0984 31.7266 57.0984 31.3534 57.0984 31.0734V21.7422H60.9984V39.3783H58.6984C58.3984 39.3783 58.0984 39.285 57.7984 39.1916C57.5984 39.0983 57.2984 38.9117 57.0984 38.6318L48.1984 28.0874C48.1984 28.3674 48.1984 28.7406 48.2984 29.0206C48.2984 29.3005 48.2984 29.5804 48.2984 29.8604V39.3783H44.3984V21.7422H46.6984C46.8984 21.7422 47.0984 21.7422 47.1984 21.7422Z" fill="#BCBCBC"/>
<path id="Vector_15" d="M74.2984 39.4716H69.8984V21.7422H74.2984V39.4716Z" fill="#BCBCBC"/>
<path id="Vector_16" d="M93.2984 32.2865C93.4984 32.6598 93.5984 32.9397 93.7984 33.313C93.8984 32.9397 94.0984 32.5664 94.2984 32.2865C94.4984 31.9133 94.5984 31.6333 94.7984 31.3534L99.6984 22.3954C99.7984 22.2088 99.8984 22.1154 99.9984 22.0221C100.098 21.9288 100.198 21.8355 100.298 21.8355C100.398 21.8355 100.498 21.7422 100.698 21.7422C100.798 21.7422 100.998 21.7422 101.198 21.7422H104.598V39.3783H100.698V29.3005C100.698 28.8339 100.698 28.2741 100.798 27.7142L95.7984 36.7655C95.5984 37.0455 95.3984 37.2321 95.1984 37.4187C94.8984 37.6053 94.5984 37.6053 94.2984 37.6053H93.6984C93.3984 37.6053 93.0984 37.512 92.7984 37.4187C92.4984 37.2321 92.2984 37.0455 92.1984 36.7655L87.1984 27.7142C87.1984 27.9941 87.2984 28.2741 87.2984 28.554C87.2984 28.8339 87.2984 29.1139 87.2984 29.3005V39.4716H83.3984V21.7422H86.7984C86.9984 21.7422 87.1984 21.7422 87.2984 21.7422C87.3984 21.7422 87.5984 21.7422 87.6984 21.8355C87.7984 21.8355 87.8984 21.9288 87.9984 22.0221C88.0984 22.1154 88.1984 22.2088 88.2984 22.3954L93.1984 31.3534C92.9984 31.6333 93.1984 32.0066 93.2984 32.2865Z" fill="#BCBCBC"/>
<path id="Vector_17" d="M130.297 39.4681H126.897C126.497 39.4681 126.197 39.3748 125.997 39.1882C125.797 39.0015 125.597 38.8149 125.497 38.535L124.397 35.4557H117.197L116.097 38.535C115.997 38.7216 115.797 39.0015 115.597 39.1882C115.397 39.3748 114.997 39.4681 114.697 39.4681H111.297L118.597 21.832H123.097L130.297 39.4681ZM118.097 32.6563H123.297L121.597 27.804C121.497 27.5241 121.297 27.1508 121.197 26.6843C121.097 26.311 120.897 25.8445 120.797 25.3779C120.697 25.8445 120.497 26.311 120.397 26.7776C120.297 27.2442 120.097 27.5241 119.997 27.8973L118.097 32.6563Z" fill="#BCBCBC"/>
<path id="Vector_18" d="M141.4 36.2056H148.4V39.4716H137V21.7422H141.4V36.2056Z" fill="#BCBCBC"/>
<path id="Vector_19" d="M160.197 39.4716H155.797V21.7422H160.197V39.4716Z" fill="#BCBCBC"/>
<path id="Vector_20" d="M179.6 25.3796C179.5 25.5663 179.3 25.7529 179.2 25.8462C179.1 25.9395 178.9 26.0328 178.6 26.0328C178.4 26.0328 178.2 25.9395 178 25.8462C177.8 25.7529 177.5 25.5663 177.2 25.4729C176.9 25.2863 176.6 25.193 176.2 25.0997C175.8 25.0064 175.4 24.9131 174.9 24.9131C174.1 24.9131 173.5 25.0997 173.1 25.3796C172.7 25.7529 172.5 26.1261 172.5 26.686C172.5 27.0593 172.6 27.3392 172.9 27.5258C173.1 27.8058 173.5 27.9924 173.9 28.179C174.3 28.3656 174.7 28.4589 175.3 28.6456C175.8 28.8322 176.3 28.9255 176.9 29.1121C177.4 29.2988 177.9 29.4854 178.5 29.7653C179 30.0453 179.5 30.3252 179.9 30.6984C180.3 31.0717 180.6 31.5383 180.9 32.0048C181.1 32.5647 181.3 33.1246 181.3 33.8711C181.3 34.7109 181.1 35.4574 180.8 36.2039C180.5 36.9504 180.1 37.5103 179.5 38.0701C178.9 38.63 178.2 39.0033 177.4 39.2832C176.6 39.5631 175.6 39.7498 174.5 39.7498C173.9 39.7498 173.3 39.6565 172.7 39.5631C172.1 39.4698 171.5 39.2832 170.9 39.0966C170.3 38.91 169.8 38.63 169.3 38.3501C168.8 38.0701 168.4 37.7902 168 37.417L169.3 35.4574C169.4 35.3641 169.5 35.1775 169.7 35.0841C169.9 34.9908 170.1 34.9908 170.3 34.9908C170.6 34.9908 170.8 35.0841 171.1 35.1775C171.4 35.3641 171.7 35.4574 172 35.644C172.3 35.8306 172.7 36.0173 173.2 36.1106C173.6 36.2972 174.1 36.2972 174.7 36.2972C175.5 36.2972 176.1 36.1106 176.6 35.8306C177 35.4574 177.3 34.9908 177.3 34.2443C177.3 33.8711 177.2 33.4978 176.9 33.2179C176.7 32.9379 176.3 32.7513 175.9 32.5647C175.5 32.3781 175.1 32.2848 174.6 32.0981C174.1 32.0048 173.6 31.8182 173.1 31.6316C172.6 31.4449 172.1 31.2583 171.6 31.0717C171.1 30.8851 170.6 30.5118 170.3 30.1386C169.9 29.7653 169.6 29.2988 169.3 28.7389C169.1 28.179 168.9 27.5258 168.9 26.686C168.9 26.0328 169 25.3796 169.3 24.7264C169.6 24.0733 170 23.5134 170.6 23.0468C171.2 22.5803 171.8 22.1137 172.6 21.8338C173.4 21.5538 174.3 21.3672 175.4 21.3672C176 21.3672 176.5 21.3672 177.1 21.4605C177.7 21.5538 178.2 21.6471 178.7 21.8338C179.2 22.0204 179.7 22.207 180.1 22.3936C180.5 22.5803 180.9 22.8602 181.3 23.1401L179.6 25.3796Z" fill="#BCBCBC"/>
<path id="Vector_21" d="M198.9 32.2865C199.1 32.6598 199.2 32.9397 199.4 33.313C199.5 32.9397 199.7 32.5664 199.9 32.2865C200.1 31.9133 200.2 31.6333 200.4 31.3534L205.3 22.3954C205.4 22.2088 205.5 22.1154 205.6 22.0221C205.7 21.9288 205.8 21.8355 205.9 21.8355C206 21.8355 206.1 21.7422 206.3 21.7422C206.4 21.7422 206.6 21.7422 206.8 21.7422H210.2V39.3783H206.3V29.3005C206.3 28.8339 206.3 28.2741 206.4 27.7142L201.4 36.7655C201.2 37.0455 201 37.2321 200.8 37.4187C200.5 37.6053 200.2 37.6053 199.9 37.6053H199.3C199 37.6053 198.7 37.512 198.4 37.4187C198.1 37.2321 197.9 37.0455 197.8 36.7655L192.8 27.7142C192.8 27.9941 192.9 28.2741 192.9 28.554C192.9 28.8339 192.9 29.1139 192.9 29.3005V39.4716H189V21.7422H192.4C192.6 21.7422 192.8 21.7422 192.9 21.7422C193 21.7422 193.2 21.7422 193.3 21.8355C193.4 21.8355 193.5 21.9288 193.6 22.0221C193.7 22.1154 193.8 22.2088 193.9 22.3954L198.8 31.3534C198.6 31.6333 198.7 32.0066 198.9 32.2865Z" fill="#BCBCBC"/>
</g>
<g id="Group_6">
<path id="Vector_22" d="M211 11.9424H210V3.07766H165.5V2.14453H211V11.9424Z" fill="#BCBCBC"/>
</g>
<g id="Group_7">
<path id="Vector_23" d="M57.8984 3.91913V0H58.5984V3.91913H57.8984Z" fill="#BCBCBC"/>
<path id="Vector_24" d="M65.6969 3.91913L63.4969 1.11975V3.91913H62.7969V0H63.4969L65.6969 2.79938V0H66.3969V3.91913H65.6969Z" fill="#BCBCBC"/>
<path id="Vector_25" d="M72 0.653188V4.01244H71.3V0.653188H70V0H73.4V0.559876H72V0.653188Z" fill="#BCBCBC"/>
<path id="Vector_26" d="M77.7 0.653188V1.67963H79.8V2.2395H77.7V3.35925H80V3.91913H77V0H80V0.559876H77.7V0.653188Z" fill="#BCBCBC"/>
<path id="Vector_27" d="M85.7984 2.79938C85.6984 2.79938 85.6984 2.79938 85.5984 2.79938H84.5984V4.01244H83.8984V0H85.5984C86.6984 0 87.2984 0.466563 87.2984 1.30638C87.2984 1.95956 86.9984 2.33281 86.3984 2.61275L87.2984 3.91913H86.4984L85.7984 2.79938ZM85.5984 2.14619C86.1984 2.14619 86.5984 1.86625 86.5984 1.39969C86.5984 0.839813 86.1984 0.653188 85.5984 0.653188H84.5984V2.2395H85.5984V2.14619Z" fill="#BCBCBC"/>
<path id="Vector_28" d="M91.1953 3.91913V0H91.8953V3.91913H91.1953Z" fill="#BCBCBC"/>
<path id="Vector_29" d="M100.197 1.95956C100.197 3.07932 99.1969 3.91913 97.9969 3.91913C96.6969 3.91913 95.7969 3.07932 95.7969 1.95956C95.7969 0.839813 96.7969 0 97.9969 0C99.1969 0 100.197 0.839813 100.197 1.95956ZM96.3969 1.95956C96.3969 2.70607 97.0969 3.35925 97.8969 3.35925C98.6969 3.35925 99.3969 2.70607 99.3969 1.95956C99.3969 1.21306 98.6969 0.559876 97.8969 0.559876C97.0969 0.559876 96.3969 1.21306 96.3969 1.95956Z" fill="#BCBCBC"/>
<path id="Vector_30" d="M105.798 2.79938C105.698 2.79938 105.698 2.79938 105.598 2.79938H104.598V4.01244H103.898V0H105.598C106.698 0 107.298 0.466563 107.298 1.30638C107.298 1.95956 106.998 2.33281 106.398 2.61275L107.298 3.91913H106.498L105.798 2.79938ZM105.598 2.14619C106.198 2.14619 106.598 1.86625 106.598 1.39969C106.598 0.839813 106.198 0.653188 105.598 0.653188H104.598V2.2395H105.598V2.14619Z" fill="#BCBCBC"/>
<path id="Vector_31" d="M117.497 0C118.797 0 119.697 0.839813 119.697 1.95956C119.697 3.07932 118.797 3.91913 117.497 3.91913H115.797V0H117.497ZM116.497 3.35925H117.497C118.297 3.35925 118.897 2.79938 118.897 1.95956C118.897 1.11975 118.297 0.559876 117.397 0.559876H116.397V3.35925H116.497Z" fill="#BCBCBC"/>
<path id="Vector_32" d="M124.2 0.653188V1.67963H126.3V2.2395H124.2V3.35925H126.6V3.91913H123.5V0H126.5V0.559876H124.2V0.653188Z" fill="#BCBCBC"/>
<path id="Vector_33" d="M133.2 0.372376L132.9 0.932251C132.4 0.652313 132 0.559001 131.7 0.559001C131.3 0.559001 131 0.745626 131 0.932251C131 1.77206 133.3 1.3055 133.3 2.70519C133.3 3.45169 132.6 3.82494 131.7 3.82494C131 3.82494 130.4 3.545 130 3.17175L130.3 2.61188C130.7 2.98513 131.3 3.17175 131.7 3.17175C132.2 3.17175 132.5 2.98513 132.5 2.70519C132.5 1.86538 130.2 2.33194 130.2 0.932251C130.2 0.279063 130.8 -0.1875 131.7 -0.1875C132.3 -0.000874817 132.8 0.18575 133.2 0.372376Z" fill="#BCBCBC"/>
<path id="Vector_34" d="M137.102 3.91913V0H137.802V3.91913H137.102Z" fill="#BCBCBC"/>
<path id="Vector_35" d="M145.402 2.05288V3.45257C145.002 3.7325 144.302 3.91913 143.802 3.91913C142.602 3.91913 141.602 3.07932 141.602 1.95956C141.602 0.839813 142.602 0 143.802 0C144.402 0 145.002 0.186625 145.402 0.559876L145.002 1.02644C144.702 0.746501 144.202 0.559876 143.802 0.559876C142.902 0.559876 142.302 1.21306 142.302 1.95956C142.302 2.70607 143.002 3.35925 143.802 3.35925C144.102 3.35925 144.502 3.26594 144.802 3.07932V2.05288H145.402Z" fill="#BCBCBC"/>
<path id="Vector_36" d="M152.4 3.91913L150.2 1.11975V3.91913H149.5V0H150.2L152.4 2.79938V0H153.1V3.91913H152.4Z" fill="#BCBCBC"/>
</g>
<g id="Group_8">
<path id="Vector_37" d="M1 11.9424H0V2.14453H45.5V3.07766H1V11.9424Z" fill="#BCBCBC"/>
</g>
</g>
</g>
<defs>
<clipPath id="clip0_3215_566">
<rect width="211" height="60" fill="white"/>
</clipPath>
</defs>
</svg>
