<svg width="211" height="61" viewBox="0 0 211 61" fill="none" xmlns="http://www.w3.org/2000/svg">
<g clip-path="url(#clip0_1_2815)">
<path d="M211 59.458H145.5V58.5249H210V49.6602H211V59.458Z" fill="white"/>
<path d="M78.8016 56.7513L78.5016 57.3112C78.0016 57.0312 77.6016 56.9379 77.3016 56.9379C76.9016 56.9379 76.6016 57.1245 76.6016 57.3112C76.6016 58.151 78.9016 57.6844 78.9016 59.0841C78.9016 59.8306 78.2016 60.2038 77.3016 60.2038C76.6016 60.2038 76.0016 59.9239 75.6016 59.5507L75.9016 58.9908C76.3016 59.364 76.9016 59.5507 77.3016 59.5507C77.8016 59.5507 78.1016 59.364 78.1016 59.0841C78.1016 58.2443 75.8016 58.7108 75.8016 57.3112C75.8016 56.658 76.4016 56.1914 77.3016 56.1914C77.9016 56.378 78.4016 56.5647 78.8016 56.7513Z" fill="white"/>
<path d="M82.7031 60.298V56.3789H83.4031V60.298H82.7031Z" fill="white"/>
<path d="M90.4 60.298L88.2 57.4987V60.298H87.5V56.3789H88.2L90.4 59.1783V56.3789H91.1V60.298H90.4Z" fill="white"/>
<path d="M98.6984 57.0299L98.2984 57.4964C97.9984 57.2165 97.5984 57.0299 97.0984 57.0299C96.2984 57.0299 95.5984 57.5897 95.5984 58.4296C95.5984 59.1761 96.2984 59.8292 97.0984 59.8292C97.4984 59.8292 97.9984 59.6426 98.2984 59.3627L98.6984 59.8292C98.2984 60.2025 97.6984 60.4824 97.0984 60.4824C95.8984 60.4824 94.8984 59.6426 94.8984 58.5229C94.8984 57.4031 95.8984 56.5633 97.0984 56.5633C97.6984 56.3767 98.2984 56.6566 98.6984 57.0299Z" fill="white"/>
<path d="M103.098 57.0321V58.0585H105.198V58.6184H103.098V59.7382H105.498V60.298H102.398V56.3789H105.398V56.9388H103.098V57.0321Z" fill="white"/>
<path d="M114.3 60.298V56.9388H113.5V56.3789H115V60.298H114.3Z" fill="white"/>
<path d="M119.102 60.0185L119.402 59.552C119.702 59.7386 120.002 59.8319 120.302 59.8319C121.102 59.8319 121.502 59.272 121.502 58.4322C121.302 58.8055 120.902 58.9921 120.402 58.9921C119.602 58.9921 119.102 58.5255 119.102 57.779C119.102 56.9392 119.702 56.4727 120.602 56.4727C121.702 56.4727 122.302 57.2192 122.302 58.3389C122.302 59.552 121.602 60.3918 120.502 60.3918C119.902 60.3918 119.402 60.2052 119.102 60.0185ZM121.302 57.6857C121.302 57.3125 121.002 56.9392 120.402 56.9392C119.902 56.9392 119.502 57.2192 119.502 57.6857C119.502 58.1523 119.802 58.4322 120.302 58.4322C121.002 58.4322 121.302 58.059 121.302 57.6857Z" fill="white"/>
<path d="M128.703 57.4053C128.703 57.7786 128.503 58.0585 128.103 58.2452C128.603 58.4318 128.903 58.805 128.903 59.2716C128.903 60.0181 128.303 60.3914 127.303 60.3914C126.303 60.3914 125.703 59.9248 125.703 59.2716C125.703 58.805 126.003 58.4318 126.603 58.2452C126.203 58.0585 125.903 57.7786 125.903 57.4053C125.903 56.7522 126.403 56.3789 127.303 56.3789C128.103 56.3789 128.703 56.7522 128.703 57.4053ZM126.303 59.1783C126.303 59.6448 126.603 59.8315 127.203 59.8315C127.803 59.8315 128.103 59.5515 128.103 59.1783C128.103 58.805 127.803 58.5251 127.203 58.5251C126.703 58.5251 126.303 58.7117 126.303 59.1783ZM126.503 57.4053C126.503 57.7786 126.803 57.9652 127.303 57.9652C127.803 57.9652 128.103 57.7786 128.103 57.4053C128.103 57.0321 127.803 56.8455 127.303 56.8455C126.803 56.8455 126.503 57.0321 126.503 57.4053Z" fill="white"/>
<path d="M133.305 57.0321V57.8719H133.905C134.805 57.8719 135.405 58.3385 135.405 59.085C135.405 59.9248 134.805 60.3914 133.805 60.3914C133.305 60.3914 132.705 60.2047 132.305 59.9248L132.605 59.3649C132.905 59.6448 133.405 59.7382 133.705 59.7382C134.205 59.7382 134.605 59.4582 134.605 58.9917C134.605 58.6184 134.305 58.3385 133.705 58.3385C133.405 58.3385 132.905 58.3385 132.605 58.4318V56.3789H135.205V56.9388H133.305V57.0321Z" fill="white"/>
<path d="M65.5 59.458H0V49.6602H1V58.5249H65.5V59.458Z" fill="white"/>
<path d="M11.2 32.6771C11.4 33.0504 11.5 33.3303 11.7 33.7036C11.8 33.3303 12 32.9571 12.2 32.6771C12.4 32.3039 12.5 32.0239 12.7 31.744L17.6 22.786C17.7 22.5994 17.8 22.5061 17.9 22.4128C18 22.3194 18.1 22.2261 18.2 22.2261C18.3 22.2261 18.4 22.1328 18.6 22.1328C18.7 22.1328 18.9 22.1328 19.1 22.1328H22.5V39.7689H18.6V29.6911C18.6 29.2246 18.6 28.6647 18.7 28.1048L13.7 37.1561C13.5 37.4361 13.3 37.6227 13.1 37.8093C12.8 37.996 12.5 37.996 12.2 37.996H11.6C11.3 37.996 11 37.9026 10.7 37.8093C10.4 37.6227 10.2 37.4361 10.1 37.1561L5.1 28.1048C5.1 28.3848 5.2 28.6647 5.2 28.9446C5.2 29.2246 5.2 29.5045 5.2 29.6911V39.8622H1V22.1328H4.4C4.6 22.1328 4.8 22.1328 4.9 22.1328C5 22.1328 5.2 22.1328 5.3 22.2261C5.4 22.2261 5.5 22.3194 5.6 22.4128C5.7 22.5061 5.8 22.5994 5.9 22.786L10.8 31.744C10.9 32.0239 11 32.3972 11.2 32.6771Z" fill="white"/>
<path d="M35.6031 39.8622H31.2031V22.1328H35.6031V39.8622Z" fill="white"/>
<path d="M47.1984 22.1328C47.2984 22.1328 47.3984 22.1328 47.5984 22.2261C47.6984 22.2261 47.7984 22.3194 47.8984 22.4128C47.9984 22.5061 48.0984 22.5994 48.1984 22.786L57.1984 33.4236C57.1984 33.0504 57.0984 32.7704 57.0984 32.3972C57.0984 32.1173 57.0984 31.744 57.0984 31.4641V22.1328H60.9984V39.7689H58.6984C58.3984 39.7689 58.0984 39.6756 57.7984 39.5823C57.5984 39.489 57.2984 39.3023 57.0984 39.0224L48.1984 28.4781C48.1984 28.758 48.1984 29.1313 48.2984 29.4112C48.2984 29.6911 48.2984 29.9711 48.2984 30.251V39.7689H44.3984V22.1328H46.6984C46.8984 22.1328 47.0984 22.1328 47.1984 22.1328Z" fill="white"/>
<path d="M74.2984 39.8622H69.8984V22.1328H74.2984V39.8622Z" fill="white"/>
<path d="M93.2984 32.6771C93.4984 33.0504 93.5984 33.3303 93.7984 33.7036C93.8984 33.3303 94.0984 32.9571 94.2984 32.6771C94.4984 32.3039 94.5984 32.0239 94.7984 31.744L99.6984 22.786C99.7984 22.5994 99.8984 22.5061 99.9984 22.4128C100.098 22.3194 100.198 22.2261 100.298 22.2261C100.398 22.2261 100.498 22.1328 100.698 22.1328C100.798 22.1328 100.998 22.1328 101.198 22.1328H104.598V39.7689H100.698V29.6911C100.698 29.2246 100.698 28.6647 100.798 28.1048L95.7984 37.1561C95.5984 37.4361 95.3984 37.6227 95.1984 37.8093C94.8984 37.996 94.5984 37.996 94.2984 37.996H93.6984C93.3984 37.996 93.0984 37.9026 92.7984 37.8093C92.4984 37.6227 92.2984 37.4361 92.1984 37.1561L87.1984 28.1048C87.1984 28.3848 87.2984 28.6647 87.2984 28.9446C87.2984 29.2246 87.2984 29.5045 87.2984 29.6911V39.8622H83.3984V22.1328H86.7984C86.9984 22.1328 87.1984 22.1328 87.2984 22.1328C87.3984 22.1328 87.5984 22.1328 87.6984 22.2261C87.7984 22.2261 87.8984 22.3194 87.9984 22.4128C88.0984 22.5061 88.1984 22.5994 88.2984 22.786L93.1984 31.744C92.9984 32.0239 93.1984 32.3972 93.2984 32.6771Z" fill="white"/>
<path d="M130.297 39.8587H126.897C126.497 39.8587 126.197 39.7654 125.997 39.5788C125.797 39.3922 125.597 39.2055 125.497 38.9256L124.397 35.8463H117.197L116.097 38.9256C115.997 39.1122 115.797 39.3922 115.597 39.5788C115.397 39.7654 114.997 39.8587 114.697 39.8587H111.297L118.597 22.2227H123.097L130.297 39.8587ZM118.097 33.0469H123.297L121.597 28.1947C121.497 27.9147 121.297 27.5415 121.197 27.0749C121.097 26.7017 120.897 26.2351 120.797 25.7685C120.697 26.2351 120.497 26.7017 120.397 27.1682C120.297 27.6348 120.097 27.9147 119.997 28.288L118.097 33.0469Z" fill="white"/>
<path d="M141.4 36.5963H148.4V39.8622H137V22.1328H141.4V36.5963Z" fill="white"/>
<path d="M160.197 39.8622H155.797V22.1328H160.197V39.8622Z" fill="white"/>
<path d="M179.6 25.7703C179.5 25.9569 179.3 26.1435 179.2 26.2368C179.1 26.3301 178.9 26.4234 178.6 26.4234C178.4 26.4234 178.2 26.3301 178 26.2368C177.8 26.1435 177.5 25.9569 177.2 25.8636C176.9 25.6769 176.6 25.5836 176.2 25.4903C175.8 25.397 175.4 25.3037 174.9 25.3037C174.1 25.3037 173.5 25.4903 173.1 25.7703C172.7 26.1435 172.5 26.5168 172.5 27.0766C172.5 27.4499 172.6 27.7298 172.9 27.9164C173.1 28.1964 173.5 28.383 173.9 28.5696C174.3 28.7563 174.7 28.8496 175.3 29.0362C175.8 29.2228 176.3 29.3161 176.9 29.5028C177.4 29.6894 177.9 29.876 178.5 30.1559C179 30.4359 179.5 30.7158 179.9 31.0891C180.3 31.4623 180.6 31.9289 180.9 32.3954C181.1 32.9553 181.3 33.5152 181.3 34.2617C181.3 35.1015 181.1 35.848 180.8 36.5945C180.5 37.341 180.1 37.9009 179.5 38.4608C178.9 39.0206 178.2 39.3939 177.4 39.6738C176.6 39.9538 175.6 40.1404 174.5 40.1404C173.9 40.1404 173.3 40.0471 172.7 39.9538C172.1 39.8605 171.5 39.6738 170.9 39.4872C170.3 39.3006 169.8 39.0206 169.3 38.7407C168.8 38.4608 168.4 38.1808 168 37.8076L169.3 35.848C169.4 35.7547 169.5 35.5681 169.7 35.4748C169.9 35.3814 170.1 35.3815 170.3 35.3815C170.6 35.3815 170.8 35.4748 171.1 35.5681C171.4 35.7547 171.7 35.848 172 36.0346C172.3 36.2213 172.7 36.4079 173.2 36.5012C173.6 36.6878 174.1 36.6878 174.7 36.6878C175.5 36.6878 176.1 36.5012 176.6 36.2213C177 35.848 177.3 35.3815 177.3 34.635C177.3 34.2617 177.2 33.8884 176.9 33.6085C176.7 33.3286 176.3 33.142 175.9 32.9553C175.5 32.7687 175.1 32.6754 174.6 32.4888C174.1 32.3954 173.6 32.2088 173.1 32.0222C172.6 31.8356 172.1 31.6489 171.6 31.4623C171.1 31.2757 170.6 30.9024 170.3 30.5292C169.9 30.1559 169.6 29.6894 169.3 29.1295C169.1 28.5696 168.9 27.9164 168.9 27.0766C168.9 26.4234 169 25.7703 169.3 25.1171C169.6 24.4639 170 23.904 170.6 23.4374C171.2 22.9709 171.8 22.5043 172.6 22.2244C173.4 21.9444 174.3 21.7578 175.4 21.7578C176 21.7578 176.5 21.7578 177.1 21.8511C177.7 21.9444 178.2 22.0378 178.7 22.2244C179.2 22.411 179.7 22.5976 180.1 22.7843C180.5 22.9709 180.9 23.2508 181.3 23.5308L179.6 25.7703Z" fill="white"/>
<path d="M198.9 32.6771C199.1 33.0504 199.2 33.3303 199.4 33.7036C199.5 33.3303 199.7 32.9571 199.9 32.6771C200.1 32.3039 200.2 32.0239 200.4 31.744L205.3 22.786C205.4 22.5994 205.5 22.5061 205.6 22.4128C205.7 22.3194 205.8 22.2261 205.9 22.2261C206 22.2261 206.1 22.1328 206.3 22.1328C206.4 22.1328 206.6 22.1328 206.8 22.1328H210.2V39.7689H206.3V29.6911C206.3 29.2246 206.3 28.6647 206.4 28.1048L201.4 37.1561C201.2 37.4361 201 37.6227 200.8 37.8093C200.5 37.996 200.2 37.996 199.9 37.996H199.3C199 37.996 198.7 37.9026 198.4 37.8093C198.1 37.6227 197.9 37.4361 197.8 37.1561L192.8 28.1048C192.8 28.3848 192.9 28.6647 192.9 28.9446C192.9 29.2246 192.9 29.5045 192.9 29.6911V39.8622H189V22.1328H192.4C192.6 22.1328 192.8 22.1328 192.9 22.1328C193 22.1328 193.2 22.1328 193.3 22.2261C193.4 22.2261 193.5 22.3194 193.6 22.4128C193.7 22.5061 193.8 22.5994 193.9 22.786L198.8 31.744C198.6 32.0239 198.7 32.3972 198.9 32.6771Z" fill="white"/>
<path d="M211 12.333H210V3.46828H165.5V2.53516H211V12.333Z" fill="white"/>
<path d="M57.8984 4.30975V0.390625H58.5984V4.30975H57.8984Z" fill="white"/>
<path d="M65.6969 4.30975L63.4969 1.51038V4.30975H62.7969V0.390625H63.4969L65.6969 3.19V0.390625H66.3969V4.30975H65.6969Z" fill="white"/>
<path d="M72 1.04381V4.40307H71.3V1.04381H70V0.390625H73.4V0.950501H72V1.04381Z" fill="white"/>
<path d="M77.7 1.04381V2.07025H79.8V2.63013H77.7V3.74988H80V4.30975H77V0.390625H80V0.950501H77.7V1.04381Z" fill="white"/>
<path d="M85.7984 3.19C85.6984 3.19 85.6984 3.19 85.5984 3.19H84.5984V4.40307H83.8984V0.390625H85.5984C86.6984 0.390625 87.2984 0.857188 87.2984 1.697C87.2984 2.35019 86.9984 2.72344 86.3984 3.00338L87.2984 4.30975H86.4984L85.7984 3.19ZM85.5984 2.53681C86.1984 2.53681 86.5984 2.25688 86.5984 1.79031C86.5984 1.23044 86.1984 1.04381 85.5984 1.04381H84.5984V2.63013H85.5984V2.53681Z" fill="white"/>
<path d="M91.1953 4.30975V0.390625H91.8953V4.30975H91.1953Z" fill="white"/>
<path d="M100.197 2.35019C100.197 3.46994 99.1969 4.30975 97.9969 4.30975C96.6969 4.30975 95.7969 3.46994 95.7969 2.35019C95.7969 1.23044 96.7969 0.390625 97.9969 0.390625C99.1969 0.390625 100.197 1.23044 100.197 2.35019ZM96.3969 2.35019C96.3969 3.09669 97.0969 3.74988 97.8969 3.74988C98.6969 3.74988 99.3969 3.09669 99.3969 2.35019C99.3969 1.60369 98.6969 0.950501 97.8969 0.950501C97.0969 0.950501 96.3969 1.60369 96.3969 2.35019Z" fill="white"/>
<path d="M105.798 3.19C105.698 3.19 105.698 3.19 105.598 3.19H104.598V4.40307H103.898V0.390625H105.598C106.698 0.390625 107.298 0.857188 107.298 1.697C107.298 2.35019 106.998 2.72344 106.398 3.00338L107.298 4.30975H106.498L105.798 3.19ZM105.598 2.53681C106.198 2.53681 106.598 2.25688 106.598 1.79031C106.598 1.23044 106.198 1.04381 105.598 1.04381H104.598V2.63013H105.598V2.53681Z" fill="white"/>
<path d="M117.497 0.390625C118.797 0.390625 119.697 1.23044 119.697 2.35019C119.697 3.46994 118.797 4.30975 117.497 4.30975H115.797V0.390625H117.497ZM116.497 3.74988H117.497C118.297 3.74988 118.897 3.19 118.897 2.35019C118.897 1.51038 118.297 0.950501 117.397 0.950501H116.397V3.74988H116.497Z" fill="white"/>
<path d="M124.2 1.04381V2.07025H126.3V2.63013H124.2V3.74988H126.6V4.30975H123.5V0.390625H126.5V0.950501H124.2V1.04381Z" fill="white"/>
<path d="M133.2 0.763001L132.9 1.32288C132.4 1.04294 132 0.949626 131.7 0.949626C131.3 0.949626 131 1.13625 131 1.32288C131 2.16269 133.3 1.69613 133.3 3.09582C133.3 3.84232 132.6 4.21557 131.7 4.21557C131 4.21557 130.4 3.93563 130 3.56238L130.3 3.0025C130.7 3.37575 131.3 3.56238 131.7 3.56238C132.2 3.56238 132.5 3.37575 132.5 3.09582C132.5 2.256 130.2 2.72256 130.2 1.32288C130.2 0.669688 130.8 0.203125 131.7 0.203125C132.3 0.38975 132.8 0.576375 133.2 0.763001Z" fill="white"/>
<path d="M137.102 4.30975V0.390625H137.802V4.30975H137.102Z" fill="white"/>
<path d="M145.402 2.4435V3.84319C145.002 4.12313 144.302 4.30975 143.802 4.30975C142.602 4.30975 141.602 3.46994 141.602 2.35019C141.602 1.23044 142.602 0.390625 143.802 0.390625C144.402 0.390625 145.002 0.57725 145.402 0.950501L145.002 1.41706C144.702 1.13713 144.202 0.950501 143.802 0.950501C142.902 0.950501 142.302 1.60369 142.302 2.35019C142.302 3.09669 143.002 3.74988 143.802 3.74988C144.102 3.74988 144.502 3.65657 144.802 3.46994V2.4435H145.402Z" fill="white"/>
<path d="M152.4 4.30975L150.2 1.51038V4.30975H149.5V0.390625H150.2L152.4 3.19V0.390625H153.1V4.30975H152.4Z" fill="white"/>
<path d="M1 12.333H0V2.53516H45.5V3.46828H1V12.333Z" fill="white"/>
</g>
<defs>
<clipPath id="clip0_1_2815">
<rect width="211" height="60" fill="white" transform="translate(0 0.390625)"/>
</clipPath>
</defs>
</svg>
