<svg width="50" height="61" viewBox="0 0 50 61" fill="none" xmlns="http://www.w3.org/2000/svg">
<g clip-path="url(#clip0_1_2805)">
<path d="M6.95054 25.9382C10.458 28.2662 15.2382 28.9491 19.3044 28.9491C24.9847 28.9491 29.2682 27.7696 32.217 25.3795C35.1657 22.9894 36.6246 19.8544 36.6246 15.9744C36.6246 11.4737 34.2656 7.28329 30.1994 5.23466C28.8957 4.58282 27.5299 4.05514 26.1021 3.71371C24.0224 3.21707 21.7565 2.96875 19.2734 2.96875C13.5931 2.96875 9.27853 4.1793 6.36078 6.53833C3.44304 8.9284 1.95312 12.0634 1.95312 15.9434C1.95312 18.2403 2.38768 20.2269 3.2568 21.903C4.15695 23.6102 5.42959 24.9139 6.95054 25.9382ZM15.2382 7.06601C16.2004 5.38986 17.5662 4.55178 19.3044 4.55178C21.0426 4.55178 22.3773 5.38986 23.3706 7.06601C24.3328 8.74216 24.8295 11.722 24.8295 15.9744C24.8295 20.2269 24.3328 23.2067 23.3706 24.8829C22.4084 26.559 21.0426 27.3971 19.3044 27.3971C17.5662 27.3971 16.2314 26.559 15.2382 24.8829C14.2759 23.2067 13.7793 20.2269 13.7793 15.9744C13.7793 11.6909 14.2759 8.74216 15.2382 7.06601Z" fill="white"/>
<path d="M36.4413 35.9342C34.2064 33.6373 31.1334 32.5198 27.1914 32.5198H12.1991C9.84012 32.5198 8.19501 32.2715 7.26382 31.8059C6.5499 31.4334 5.96014 30.8126 5.89806 29.9435C5.83598 29.2607 6.17742 28.733 6.58094 28.2053C4.06671 27.988 1.33521 29.4159 0.497133 31.868C-0.620301 35.2203 0.341933 38.914 3.13552 41.0868C5.24623 42.7009 8.25709 43.539 12.1991 43.539H27.1603C33.4614 43.539 36.6275 45.2462 36.6275 48.6605C36.6275 51.33 35.1376 53.5959 32.1888 55.3962C28.8986 57.4138 24.9876 58.345 21.1697 58.5623C17.0414 58.8106 13.2545 58.1587 9.4366 56.6688C10.9886 55.5204 11.9508 53.6269 11.9198 51.7025C11.8888 49.778 10.8955 47.8846 9.31245 46.7982C7.69837 45.7428 5.55663 45.5255 3.78735 46.3015C2.60784 46.8292 1.61457 47.7604 0.93169 48.8778C0.279854 49.9332 -0.0926242 51.2058 0.0315352 52.4474C0.186734 53.8752 1.02481 55.21 2.1112 56.1411C5.24623 58.9037 10.2126 59.7107 14.2478 60.1763C18.7796 60.673 23.1873 60.3005 27.6259 59.3693C31.2886 58.5933 34.9513 56.8861 37.3104 53.8752C39.1107 51.5473 39.7936 48.3501 39.7936 45.4634C39.7936 41.3972 38.6761 38.2001 36.4413 35.9342Z" fill="white"/>
<path d="M43.0219 12.372C46.3305 12.372 49.0126 9.68988 49.0126 6.38131C49.0126 3.07275 46.3305 0.390625 43.0219 0.390625C39.7134 0.390625 37.0312 3.07275 37.0312 6.38131C37.0312 9.68988 39.7134 12.372 43.0219 12.372Z" fill="white"/>
</g>
<defs>
<clipPath id="clip0_1_2805">
<rect width="49.0429" height="60" fill="white" transform="translate(0 0.390625)"/>
</clipPath>
</defs>
</svg>
