<svg width="50" height="60" viewBox="0 0 50 60" fill="none" xmlns="http://www.w3.org/2000/svg">
<g id="Frame" clip-path="url(#clip0_3215_556)">
<g id="Group">
<g id="Group_2">
<path id="Vector" d="M6.95054 25.5476C10.458 27.8756 15.2382 28.5585 19.3044 28.5585C24.9847 28.5585 29.2682 27.379 32.217 24.9889C35.1657 22.5988 36.6246 19.4638 36.6246 15.5838C36.6246 11.083 34.2656 6.89266 30.1994 4.84403C28.8957 4.1922 27.5299 3.66452 26.1021 3.32308C24.0224 2.82644 21.7565 2.57812 19.2734 2.57812C13.5931 2.57812 9.27853 3.78868 6.36078 6.14771C3.44304 8.53777 1.95312 11.6728 1.95312 15.5528C1.95312 17.8497 2.38768 19.8363 3.2568 21.5124C4.15695 23.2196 5.42959 24.5233 6.95054 25.5476ZM15.2382 6.67538C16.2004 4.99923 17.5662 4.16116 19.3044 4.16116C21.0426 4.16116 22.3773 4.99923 23.3706 6.67538C24.3328 8.35153 24.8295 11.3314 24.8295 15.5838C24.8295 19.8363 24.3328 22.8161 23.3706 24.4922C22.4084 26.1684 21.0426 27.0065 19.3044 27.0065C17.5662 27.0065 16.2314 26.1684 15.2382 24.4922C14.2759 22.8161 13.7793 19.8363 13.7793 15.5838C13.7793 11.3003 14.2759 8.35153 15.2382 6.67538Z" fill="#BCBCBC"/>
<path id="Vector_2" d="M36.4413 35.5436C34.2064 33.2466 31.1334 32.1292 27.1914 32.1292H12.1991C9.84012 32.1292 8.19501 31.8809 7.26382 31.4153C6.5499 31.0428 5.96014 30.422 5.89806 29.5529C5.83598 28.87 6.17742 28.3424 6.58094 27.8147C4.06671 27.5974 1.33521 29.0252 0.497133 31.4774C-0.620301 34.8297 0.341933 38.5234 3.13552 40.6962C5.24623 42.3103 8.25709 43.1484 12.1991 43.1484H27.1603C33.4614 43.1484 36.6275 44.8555 36.6275 48.2699C36.6275 50.9393 35.1376 53.2053 32.1888 55.0056C28.8986 57.0232 24.9876 57.9543 21.1697 58.1716C17.0414 58.4199 13.2545 57.7681 9.4366 56.2782C10.9886 55.1297 11.9508 53.2363 11.9198 51.3118C11.8888 49.3874 10.8955 47.4939 9.31245 46.4075C7.69837 45.3522 5.55663 45.1349 3.78735 45.9109C2.60784 46.4386 1.61457 47.3698 0.93169 48.4872C0.279854 49.5426 -0.0926242 50.8152 0.0315352 52.0568C0.186734 53.4846 1.02481 54.8193 2.1112 55.7505C5.24623 58.5131 10.2126 59.3201 14.2478 59.7857C18.7796 60.2823 23.1873 59.9099 27.6259 58.9787C31.2886 58.2027 34.9513 56.4955 37.3104 53.4846C39.1107 51.1566 39.7936 47.9595 39.7936 45.0728C39.7936 41.0066 38.6761 37.8095 36.4413 35.5436Z" fill="#BCBCBC"/>
</g>
<path id="Vector_3" d="M43.0219 11.9814C46.3305 11.9814 49.0126 9.29925 49.0126 5.99069C49.0126 2.68212 46.3305 0 43.0219 0C39.7134 0 37.0312 2.68212 37.0312 5.99069C37.0312 9.29925 39.7134 11.9814 43.0219 11.9814Z" fill="#BCBCBC"/>
</g>
</g>
<defs>
<clipPath id="clip0_3215_556">
<rect width="49.0429" height="60" fill="white"/>
</clipPath>
</defs>
</svg>
