<svg width="202" height="60" viewBox="0 0 202 60" fill="none" xmlns="http://www.w3.org/2000/svg">
<g id="Frame" clip-path="url(#clip0_3215_612)">
<g id="Stockholm_x5F_25_2_">
<g id="Group">
<path id="Vector" d="M41 59.3224H0V2.4375H41V5.1463H2V56.6136H41V59.3224Z" fill="#BCBCBC"/>
</g>
<g id="Group_2">
<path id="Vector_2" d="M202 59.3224H161V56.6136H200V5.1463H161V2.4375H202V59.3224Z" fill="#BCBCBC"/>
</g>
<g id="Group_3">
<path id="Vector_3" d="M53.3984 59.8643V54.1758H54.0984V59.8643H53.3984Z" fill="#BCBCBC"/>
<path id="Vector_4" d="M61.1969 59.8643L58.9969 55.8011V59.8643H58.2969V54.1758H58.9969L61.1969 58.239V54.1758H61.8969V59.8643H61.1969Z" fill="#BCBCBC"/>
<path id="Vector_5" d="M67.5 55.1239V59.9997H66.8V55.1239H65.5V54.1758H68.9V54.9884H67.5V55.1239Z" fill="#BCBCBC"/>
<path id="Vector_6" d="M73.2 55.1239V56.6137H75.3V57.4263H73.2V59.0516H75.6V59.8643H72.5V54.1758H75.5V54.9884H73.2V55.1239Z" fill="#BCBCBC"/>
<path id="Vector_7" d="M81.2984 58.239C81.1984 58.239 81.1984 58.239 81.0984 58.239H80.0984V59.9997H79.3984V54.1758H81.0984C82.1984 54.1758 82.7984 54.853 82.7984 56.0719C82.7984 57.02 82.4984 57.5618 81.8984 57.9681L82.7984 59.8643H81.9984L81.2984 58.239ZM81.0984 57.2909C81.6984 57.2909 82.0984 56.8846 82.0984 56.2074C82.0984 55.3947 81.6984 55.1239 81.0984 55.1239H80.0984V57.4263H81.0984V57.2909Z" fill="#BCBCBC"/>
<path id="Vector_8" d="M86.6953 59.8643V54.1758H87.3953V59.8643H86.6953Z" fill="#BCBCBC"/>
<path id="Vector_9" d="M95.6969 57.02C95.6969 58.6453 94.6969 59.8643 93.4969 59.8643C92.1969 59.8643 91.2969 58.6453 91.2969 57.02C91.2969 55.3947 92.2969 54.1758 93.4969 54.1758C94.6969 54.1758 95.6969 55.3947 95.6969 57.02ZM91.8969 57.02C91.8969 58.1035 92.5969 59.0516 93.3969 59.0516C94.1969 59.0516 94.8969 58.1035 94.8969 57.02C94.8969 55.9365 94.1969 54.9884 93.3969 54.9884C92.5969 54.9884 91.8969 55.9365 91.8969 57.02Z" fill="#BCBCBC"/>
<path id="Vector_10" d="M101.298 58.239C101.198 58.239 101.198 58.239 101.098 58.239H100.098V59.9997H99.3984V54.1758H101.098C102.198 54.1758 102.798 54.853 102.798 56.0719C102.798 57.02 102.498 57.5618 101.898 57.9681L102.798 59.8643H101.998L101.298 58.239ZM101.098 57.2909C101.698 57.2909 102.098 56.8846 102.098 56.2074C102.098 55.3947 101.698 55.1239 101.098 55.1239H100.098V57.4263H101.098V57.2909Z" fill="#BCBCBC"/>
<path id="Vector_11" d="M112.997 54.1758C114.297 54.1758 115.197 55.3947 115.197 57.02C115.197 58.6453 114.297 59.8643 112.997 59.8643H111.297V54.1758H112.997ZM111.997 59.0516H112.997C113.797 59.0516 114.397 58.239 114.397 57.02C114.397 55.8011 113.797 54.9884 112.897 54.9884H111.897V59.0516H111.997Z" fill="#BCBCBC"/>
<path id="Vector_12" d="M119.7 55.1239V56.6137H121.8V57.4263H119.7V59.0516H122.1V59.8643H119V54.1758H122V54.9884H119.7V55.1239Z" fill="#BCBCBC"/>
<path id="Vector_13" d="M128.7 54.7189L128.4 55.5315C127.9 55.1252 127.5 54.9898 127.2 54.9898C126.8 54.9898 126.5 55.2607 126.5 55.5315C126.5 56.7505 128.8 56.0733 128.8 58.1049C128.8 59.1884 128.1 59.7302 127.2 59.7302C126.5 59.7302 125.9 59.3239 125.5 58.7821L125.8 57.9695C126.2 58.5112 126.8 58.7821 127.2 58.7821C127.7 58.7821 128 58.5112 128 58.1049C128 56.8859 125.7 57.5631 125.7 55.5315C125.7 54.5835 126.3 53.9062 127.2 53.9062C127.8 54.1771 128.3 54.448 128.7 54.7189Z" fill="#BCBCBC"/>
<path id="Vector_14" d="M132.602 59.8643V54.1758H133.302V59.8643H132.602Z" fill="#BCBCBC"/>
<path id="Vector_15" d="M140.902 57.1555V59.1871C140.502 59.5934 139.802 59.8643 139.302 59.8643C138.102 59.8643 137.102 58.6453 137.102 57.02C137.102 55.3947 138.102 54.1758 139.302 54.1758C139.902 54.1758 140.502 54.4467 140.902 54.9884L140.502 55.6656C140.202 55.2593 139.702 54.9884 139.302 54.9884C138.402 54.9884 137.802 55.9365 137.802 57.02C137.802 58.1035 138.502 59.0516 139.302 59.0516C139.602 59.0516 140.002 58.9162 140.302 58.6453V57.02H140.902V57.1555Z" fill="#BCBCBC"/>
<path id="Vector_16" d="M147.9 59.8643L145.7 55.8011V59.8643H145V54.1758H145.7L147.9 58.239V54.1758H148.6V59.8643H147.9Z" fill="#BCBCBC"/>
</g>
<g id="Group_4">
<path id="Vector_17" d="M20.7 35.0758H20.6H17.4V41.4415H13V18.6875H20.5C24.9 18.6875 27.5 21.5317 27.5 26.6785C27.5 30.1999 26.4 32.6378 24.5 33.9922L28 41.4415H23.2L20.7 35.0758ZM20.6 30.4708C22.4 30.4708 23.5 29.2518 23.5 26.8139C23.5 24.376 22.4 23.2925 20.6 23.2925H17.4V30.6062H20.6V30.4708Z" fill="#BCBCBC"/>
<path id="Vector_18" d="M34.6984 23.157V27.6266H42.6984V32.2315H34.6984V36.8365H43.7984V41.4415H30.3984V18.6875H43.5984V23.2925H34.6984V23.157Z" fill="#BCBCBC"/>
<path id="Vector_19" d="M54.4016 23.2951V41.4441H50.1016V23.2951H45.1016V18.5547H59.5016V23.2951H54.4016Z" fill="#BCBCBC"/>
<path id="Vector_20" d="M68.8969 35.0758H68.7969H65.5969V41.4415H61.2969V18.6875H68.7969C73.1969 18.6875 75.7969 21.5317 75.7969 26.6785C75.7969 30.1999 74.6969 32.6378 72.7969 33.9922L76.2969 41.4415H71.4969L68.8969 35.0758ZM68.7969 30.4708C70.5969 30.4708 71.6969 29.2518 71.6969 26.8139C71.6969 24.376 70.5969 23.2925 68.7969 23.2925H65.5969V30.6062H68.7969V30.4708Z" fill="#BCBCBC"/>
<path id="Vector_21" d="M95.7 30.0659C95.7 36.7024 91.8 41.7137 86.6 41.7137C81.4 41.7137 77.5 36.7024 77.5 30.0659C77.5 23.4293 81.4 18.5535 86.6 18.5535C91.8 18.418 95.7 23.4293 95.7 30.0659ZM81.9 30.0659C81.9 33.8582 84.1 36.8379 86.7 36.8379C89.3 36.8379 91.4 33.8582 91.4 30.0659C91.4 26.2736 89.3 23.2939 86.7 23.2939C84.1 23.2939 81.9 26.1381 81.9 30.0659Z" fill="#BCBCBC"/>
<path id="Vector_22" d="M105.2 18.6875C110.5 18.6875 114.1 23.2925 114.1 30.0645C114.1 36.8365 110.4 41.4415 105 41.4415H98V18.6875H105.2ZM102.2 36.8365H105.2C107.8 36.8365 109.7 34.1277 109.7 30.0645C109.7 26.0013 107.7 23.2925 105 23.2925H102.1V36.8365H102.2Z" fill="#BCBCBC"/>
<path id="Vector_23" d="M120.597 23.157V27.6266H128.597V32.2315H120.597V36.8365H129.697V41.4415H116.297V18.6875H129.497V23.2925H120.597V23.157Z" fill="#BCBCBC"/>
<path id="Vector_24" d="M145.597 20.9914L143.997 25.4609C142.197 24.1065 139.997 23.023 138.597 23.023C137.497 23.023 136.797 23.5648 136.797 24.6483C136.797 28.5761 145.697 26.2736 145.697 34.5354C145.697 39.1404 142.697 41.4429 138.997 41.4429C136.197 41.4429 133.297 39.953 131.297 37.786L132.997 33.3165C134.697 35.3481 137.297 36.7025 139.097 36.7025C140.397 36.7025 141.297 36.0253 141.297 34.6709C141.297 30.6077 132.397 33.0456 132.397 24.9192C132.397 20.7205 135.097 18.0117 139.097 18.0117C141.397 18.418 143.897 19.3661 145.597 20.9914Z" fill="#BCBCBC"/>
<path id="Vector_25" d="M148 41.4415V18.6875H152.3V41.4415H148Z" fill="#BCBCBC"/>
<path id="Vector_26" d="M170.5 29.7962V38.7353C168.7 40.496 165.9 41.715 163.5 41.715C158.4 41.715 154.5 36.7037 154.5 30.0671C154.5 23.4305 158.5 18.5547 163.8 18.5547C166.3 18.5547 168.9 19.9091 170.7 21.9407L168.3 25.8685C167.1 24.3786 165.4 23.4305 163.8 23.4305C161 23.4305 158.9 26.4102 158.9 30.2025C158.9 34.1303 161 36.9746 163.8 36.9746C164.7 36.9746 165.8 36.5682 166.8 35.891V29.7962H170.5Z" fill="#BCBCBC"/>
<path id="Vector_27" d="M185.2 41.4415L177.5 27.4911V41.4415H173.5V18.6875H177.3L185.1 32.7733V18.6875H189.1V41.4415H185.2Z" fill="#BCBCBC"/>
</g>
<g id="Group_5">
<path id="Vector_28" d="M74.3016 0.541761L74.0016 1.48984C73.5016 1.08352 73.1016 0.948081 72.8016 0.948081C72.4016 0.948081 72.1016 1.21896 72.1016 1.48984C72.1016 2.7088 74.4016 2.0316 74.4016 4.06321C74.4016 5.14673 73.7016 5.68849 72.8016 5.68849C72.1016 5.68849 71.5016 5.28217 71.1016 4.74041L71.4016 4.06321C71.8016 4.60497 72.4016 4.87585 72.8016 4.87585C73.3016 4.87585 73.6016 4.60497 73.6016 4.19865C73.6016 2.97968 71.3016 3.65688 71.3016 1.62528C71.3016 0.677201 71.9016 0 72.8016 0C73.4016 0 73.9016 0.27088 74.3016 0.541761Z" fill="#BCBCBC"/>
<path id="Vector_29" d="M78.2031 5.68849V0H78.9031V5.68849H78.2031Z" fill="#BCBCBC"/>
<path id="Vector_30" d="M85.9 5.68849L83.7 1.62528V5.68849H83V0H83.7L85.9 4.06321V0H86.6V5.68849H85.9Z" fill="#BCBCBC"/>
<path id="Vector_31" d="M94.1984 0.947016L93.7984 1.62422C93.4984 1.2179 93.0984 0.947016 92.5984 0.947016C91.7984 0.947016 91.0984 1.75966 91.0984 2.97862C91.0984 4.06214 91.7984 5.01022 92.5984 5.01022C92.9984 5.01022 93.4984 4.73934 93.7984 4.33302L94.1984 5.01022C93.7984 5.55198 93.1984 5.9583 92.5984 5.9583C91.3984 5.9583 90.3984 4.73934 90.3984 3.11406C90.3984 1.48878 91.3984 0.269815 92.5984 0.269815C93.1984 -0.00106546 93.7984 0.405255 94.1984 0.947016Z" fill="#BCBCBC"/>
<path id="Vector_32" d="M98.5984 0.948081V2.43792H100.698V3.25056H98.5984V4.87585H100.998V5.68849H97.8984V0H100.898V0.812641H98.5984V0.948081Z" fill="#BCBCBC"/>
<path id="Vector_33" d="M109.8 5.68849V0.948081H109V0H110.5V5.68849H109.8Z" fill="#BCBCBC"/>
<path id="Vector_34" d="M114.602 5.28345L114.902 4.60625C115.202 4.87713 115.502 5.01257 115.802 5.01257C116.602 5.01257 117.002 4.19992 117.002 2.98096C116.802 3.52272 116.402 3.7936 115.902 3.7936C115.102 3.7936 114.602 3.1164 114.602 2.03288C114.602 0.81392 115.202 0.136719 116.102 0.136719C117.202 0.136719 117.802 1.22024 117.802 2.84552C117.802 4.60624 117.102 5.82521 116.002 5.82521C115.402 5.82521 114.902 5.55433 114.602 5.28345ZM116.802 1.89744C116.802 1.35568 116.502 0.81392 115.902 0.81392C115.402 0.81392 115.002 1.22024 115.002 1.89744C115.002 2.57464 115.302 2.98096 115.802 2.98096C116.502 2.98096 116.802 2.4392 116.802 1.89744Z" fill="#BCBCBC"/>
<path id="Vector_35" d="M124.203 1.48984C124.203 2.0316 124.003 2.43792 123.603 2.7088C124.103 2.97968 124.403 3.52144 124.403 4.19865C124.403 5.28217 123.803 5.82393 122.803 5.82393C121.803 5.82393 121.203 5.14673 121.203 4.19865C121.203 3.52144 121.503 2.97968 122.103 2.7088C121.703 2.43792 121.403 2.0316 121.403 1.48984C121.403 0.541761 121.903 0 122.803 0C123.603 0 124.203 0.541761 124.203 1.48984ZM121.803 4.06321C121.803 4.74041 122.103 5.01129 122.703 5.01129C123.303 5.01129 123.603 4.60497 123.603 4.06321C123.603 3.52144 123.303 3.11512 122.703 3.11512C122.203 3.11512 121.803 3.386 121.803 4.06321ZM122.003 1.48984C122.003 2.0316 122.303 2.30248 122.803 2.30248C123.303 2.30248 123.603 2.0316 123.603 1.48984C123.603 0.948081 123.303 0.677201 122.803 0.677201C122.303 0.677201 122.003 0.948081 122.003 1.48984Z" fill="#BCBCBC"/>
<path id="Vector_36" d="M128.805 0.948081V2.16704H129.405C130.305 2.16704 130.905 2.84424 130.905 3.92777C130.905 5.14673 130.305 5.82393 129.305 5.82393C128.805 5.82393 128.205 5.55305 127.805 5.14673L128.105 4.33409C128.405 4.74041 128.905 4.87585 129.205 4.87585C129.705 4.87585 130.105 4.46953 130.105 3.79233C130.105 3.25056 129.805 2.84424 129.205 2.84424C128.905 2.84424 128.405 2.84424 128.105 2.97968V0H130.705V0.812641H128.805V0.948081Z" fill="#BCBCBC"/>
</g>
</g>
</g>
<defs>
<clipPath id="clip0_3215_612">
<rect width="202" height="60" fill="white"/>
</clipPath>
</defs>
</svg>
