<svg width="202" height="61" viewBox="0 0 202 61" fill="none" xmlns="http://www.w3.org/2000/svg">
<g clip-path="url(#clip0_1_2861)">
<path d="M41 59.713H0V2.82812H41V5.53693H2V57.0042H41V59.713Z" fill="white"/>
<path d="M202 59.713H161V57.0042H200V5.53693H161V2.82812H202V59.713Z" fill="white"/>
<path d="M53.3984 60.2549V54.5664H54.0984V60.2549H53.3984Z" fill="white"/>
<path d="M61.1969 60.2549L58.9969 56.1917V60.2549H58.2969V54.5664H58.9969L61.1969 58.6296V54.5664H61.8969V60.2549H61.1969Z" fill="white"/>
<path d="M67.5 55.5145V60.3903H66.8V55.5145H65.5V54.5664H68.9V55.379H67.5V55.5145Z" fill="white"/>
<path d="M73.2 55.5145V57.0043H75.3V57.817H73.2V59.4423H75.6V60.2549H72.5V54.5664H75.5V55.379H73.2V55.5145Z" fill="white"/>
<path d="M81.2984 58.6296C81.1984 58.6296 81.1984 58.6296 81.0984 58.6296H80.0984V60.3903H79.3984V54.5664H81.0984C82.1984 54.5664 82.7984 55.2436 82.7984 56.4626C82.7984 57.4107 82.4984 57.9524 81.8984 58.3587L82.7984 60.2549H81.9984L81.2984 58.6296ZM81.0984 57.6815C81.6984 57.6815 82.0984 57.2752 82.0984 56.598C82.0984 55.7854 81.6984 55.5145 81.0984 55.5145H80.0984V57.817H81.0984V57.6815Z" fill="white"/>
<path d="M86.6953 60.2549V54.5664H87.3953V60.2549H86.6953Z" fill="white"/>
<path d="M95.6969 57.4106C95.6969 59.0359 94.6969 60.2549 93.4969 60.2549C92.1969 60.2549 91.2969 59.0359 91.2969 57.4106C91.2969 55.7854 92.2969 54.5664 93.4969 54.5664C94.6969 54.5664 95.6969 55.7854 95.6969 57.4106ZM91.8969 57.4106C91.8969 58.4942 92.5969 59.4423 93.3969 59.4423C94.1969 59.4423 94.8969 58.4942 94.8969 57.4106C94.8969 56.3271 94.1969 55.379 93.3969 55.379C92.5969 55.379 91.8969 56.3271 91.8969 57.4106Z" fill="white"/>
<path d="M101.298 58.6296C101.198 58.6296 101.198 58.6296 101.098 58.6296H100.098V60.3903H99.3984V54.5664H101.098C102.198 54.5664 102.798 55.2436 102.798 56.4626C102.798 57.4107 102.498 57.9524 101.898 58.3587L102.798 60.2549H101.998L101.298 58.6296ZM101.098 57.6815C101.698 57.6815 102.098 57.2752 102.098 56.598C102.098 55.7854 101.698 55.5145 101.098 55.5145H100.098V57.817H101.098V57.6815Z" fill="white"/>
<path d="M112.997 54.5664C114.297 54.5664 115.197 55.7854 115.197 57.4106C115.197 59.0359 114.297 60.2549 112.997 60.2549H111.297V54.5664H112.997ZM111.997 59.4423H112.997C113.797 59.4423 114.397 58.6296 114.397 57.4106C114.397 56.1917 113.797 55.379 112.897 55.379H111.897V59.4423H111.997Z" fill="white"/>
<path d="M119.7 55.5145V57.0043H121.8V57.817H119.7V59.4423H122.1V60.2549H119V54.5664H122V55.379H119.7V55.5145Z" fill="white"/>
<path d="M128.7 55.1095L128.4 55.9222C127.9 55.5158 127.5 55.3804 127.2 55.3804C126.8 55.3804 126.5 55.6513 126.5 55.9222C126.5 57.1411 128.8 56.4639 128.8 58.4955C128.8 59.579 128.1 60.1208 127.2 60.1208C126.5 60.1208 125.9 59.7145 125.5 59.1727L125.8 58.3601C126.2 58.9018 126.8 59.1727 127.2 59.1727C127.7 59.1727 128 58.9018 128 58.4955C128 57.2766 125.7 57.9538 125.7 55.9222C125.7 54.9741 126.3 54.2969 127.2 54.2969C127.8 54.5678 128.3 54.8386 128.7 55.1095Z" fill="white"/>
<path d="M132.602 60.2549V54.5664H133.302V60.2549H132.602Z" fill="white"/>
<path d="M140.902 57.5461V59.5777C140.502 59.984 139.802 60.2549 139.302 60.2549C138.102 60.2549 137.102 59.0359 137.102 57.4106C137.102 55.7854 138.102 54.5664 139.302 54.5664C139.902 54.5664 140.502 54.8373 140.902 55.379L140.502 56.0562C140.202 55.6499 139.702 55.379 139.302 55.379C138.402 55.379 137.802 56.3271 137.802 57.4106C137.802 58.4942 138.502 59.4423 139.302 59.4423C139.602 59.4423 140.002 59.3068 140.302 59.0359V57.4106H140.902V57.5461Z" fill="white"/>
<path d="M147.9 60.2549L145.7 56.1917V60.2549H145V54.5664H145.7L147.9 58.6296V54.5664H148.6V60.2549H147.9Z" fill="white"/>
<path d="M20.7 35.4664H20.6H17.4V41.8321H13V19.0781H20.5C24.9 19.0781 27.5 21.9224 27.5 27.0691C27.5 30.5905 26.4 33.0285 24.5 34.3829L28 41.8321H23.2L20.7 35.4664ZM20.6 30.8614C22.4 30.8614 23.5 29.6425 23.5 27.2045C23.5 24.7666 22.4 23.6831 20.6 23.6831H17.4V30.9969H20.6V30.8614Z" fill="white"/>
<path d="M34.6984 23.5477V28.0172H42.6984V32.6221H34.6984V37.2271H43.7984V41.8321H30.3984V19.0781H43.5984V23.6831H34.6984V23.5477Z" fill="white"/>
<path d="M54.4016 23.6857V41.8347H50.1016V23.6857H45.1016V18.9453H59.5016V23.6857H54.4016Z" fill="white"/>
<path d="M68.8969 35.4664H68.7969H65.5969V41.8321H61.2969V19.0781H68.7969C73.1969 19.0781 75.7969 21.9224 75.7969 27.0691C75.7969 30.5905 74.6969 33.0285 72.7969 34.3829L76.2969 41.8321H71.4969L68.8969 35.4664ZM68.7969 30.8614C70.5969 30.8614 71.6969 29.6425 71.6969 27.2045C71.6969 24.7666 70.5969 23.6831 68.7969 23.6831H65.5969V30.9969H68.7969V30.8614Z" fill="white"/>
<path d="M95.7 30.4565C95.7 37.0931 91.8 42.1044 86.6 42.1044C81.4 42.1044 77.5 37.0931 77.5 30.4565C77.5 23.8199 81.4 18.9441 86.6 18.9441C91.8 18.8086 95.7 23.8199 95.7 30.4565ZM81.9 30.4565C81.9 34.2488 84.1 37.2285 86.7 37.2285C89.3 37.2285 91.4 34.2488 91.4 30.4565C91.4 26.6642 89.3 23.6845 86.7 23.6845C84.1 23.6845 81.9 26.5287 81.9 30.4565Z" fill="white"/>
<path d="M105.2 19.0781C110.5 19.0781 114.1 23.6831 114.1 30.4551C114.1 37.2271 110.4 41.8321 105 41.8321H98V19.0781H105.2ZM102.2 37.2271H105.2C107.8 37.2271 109.7 34.5183 109.7 30.4551C109.7 26.3919 107.7 23.6831 105 23.6831H102.1V37.2271H102.2Z" fill="white"/>
<path d="M120.597 23.5477V28.0172H128.597V32.6221H120.597V37.2271H129.697V41.8321H116.297V19.0781H129.497V23.6831H120.597V23.5477Z" fill="white"/>
<path d="M145.597 21.382L143.997 25.8516C142.197 24.4972 139.997 23.4136 138.597 23.4136C137.497 23.4136 136.797 23.9554 136.797 25.0389C136.797 28.9667 145.697 26.6642 145.697 34.926C145.697 39.531 142.697 41.8335 138.997 41.8335C136.197 41.8335 133.297 40.3437 131.297 38.1766L132.997 33.7071C134.697 35.7387 137.297 37.0931 139.097 37.0931C140.397 37.0931 141.297 36.4159 141.297 35.0615C141.297 30.9983 132.397 33.4362 132.397 25.3098C132.397 21.1111 135.097 18.4023 139.097 18.4023C141.397 18.8087 143.897 19.7567 145.597 21.382Z" fill="white"/>
<path d="M148 41.8321V19.0781H152.3V41.8321H148Z" fill="white"/>
<path d="M170.5 30.1868V39.1259C168.7 40.8866 165.9 42.1056 163.5 42.1056C158.4 42.1056 154.5 37.0943 154.5 30.4577C154.5 23.8212 158.5 18.9453 163.8 18.9453C166.3 18.9453 168.9 20.2997 170.7 22.3313L168.3 26.2591C167.1 24.7692 165.4 23.8212 163.8 23.8212C161 23.8212 158.9 26.8008 158.9 30.5932C158.9 34.5209 161 37.3652 163.8 37.3652C164.7 37.3652 165.8 36.9589 166.8 36.2817V30.1868H170.5Z" fill="white"/>
<path d="M185.2 41.8321L177.5 27.8817V41.8321H173.5V19.0781H177.3L185.1 33.1639V19.0781H189.1V41.8321H185.2Z" fill="white"/>
<path d="M74.3016 0.932386L74.0016 1.88047C73.5016 1.47415 73.1016 1.33871 72.8016 1.33871C72.4016 1.33871 72.1016 1.60959 72.1016 1.88047C72.1016 3.09943 74.4016 2.42223 74.4016 4.45383C74.4016 5.53735 73.7016 6.07911 72.8016 6.07911C72.1016 6.07911 71.5016 5.67279 71.1016 5.13103L71.4016 4.45383C71.8016 4.99559 72.4016 5.26647 72.8016 5.26647C73.3016 5.26647 73.6016 4.99559 73.6016 4.58927C73.6016 3.37031 71.3016 4.04751 71.3016 2.01591C71.3016 1.06783 71.9016 0.390625 72.8016 0.390625C73.4016 0.390625 73.9016 0.661505 74.3016 0.932386Z" fill="white"/>
<path d="M78.2031 6.07911V0.390625H78.9031V6.07911H78.2031Z" fill="white"/>
<path d="M85.9 6.07911L83.7 2.01591V6.07911H83V0.390625H83.7L85.9 4.45383V0.390625H86.6V6.07911H85.9Z" fill="white"/>
<path d="M94.1984 1.33764L93.7984 2.01484C93.4984 1.60852 93.0984 1.33764 92.5984 1.33764C91.7984 1.33764 91.0984 2.15028 91.0984 3.36924C91.0984 4.45276 91.7984 5.40085 92.5984 5.40085C92.9984 5.40085 93.4984 5.12997 93.7984 4.72365L94.1984 5.40085C93.7984 5.94261 93.1984 6.34893 92.5984 6.34893C91.3984 6.34893 90.3984 5.12997 90.3984 3.50468C90.3984 1.8794 91.3984 0.66044 92.5984 0.66044C93.1984 0.38956 93.7984 0.79588 94.1984 1.33764Z" fill="white"/>
<path d="M98.5984 1.33871V2.82855H100.698V3.64119H98.5984V5.26647H100.998V6.07911H97.8984V0.390625H100.898V1.20327H98.5984V1.33871Z" fill="white"/>
<path d="M109.8 6.07911V1.33871H109V0.390625H110.5V6.07911H109.8Z" fill="white"/>
<path d="M114.602 5.67407L114.902 4.99687C115.202 5.26775 115.502 5.40319 115.802 5.40319C116.602 5.40319 117.002 4.59055 117.002 3.37159C116.802 3.91335 116.402 4.18423 115.902 4.18423C115.102 4.18423 114.602 3.50703 114.602 2.42351C114.602 1.20454 115.202 0.527344 116.102 0.527344C117.202 0.527344 117.802 1.61086 117.802 3.23615C117.802 4.99687 117.102 6.21583 116.002 6.21583C115.402 6.21583 114.902 5.94495 114.602 5.67407ZM116.802 2.28807C116.802 1.74631 116.502 1.20454 115.902 1.20454C115.402 1.20454 115.002 1.61087 115.002 2.28807C115.002 2.96527 115.302 3.37159 115.802 3.37159C116.502 3.37159 116.802 2.82983 116.802 2.28807Z" fill="white"/>
<path d="M124.203 1.88047C124.203 2.42223 124.003 2.82855 123.603 3.09943C124.103 3.37031 124.403 3.91207 124.403 4.58927C124.403 5.67279 123.803 6.21455 122.803 6.21455C121.803 6.21455 121.203 5.53735 121.203 4.58927C121.203 3.91207 121.503 3.37031 122.103 3.09943C121.703 2.82855 121.403 2.42223 121.403 1.88047C121.403 0.932386 121.903 0.390625 122.803 0.390625C123.603 0.390625 124.203 0.932386 124.203 1.88047ZM121.803 4.45383C121.803 5.13103 122.103 5.40191 122.703 5.40191C123.303 5.40191 123.603 4.99559 123.603 4.45383C123.603 3.91207 123.303 3.50575 122.703 3.50575C122.203 3.50575 121.803 3.77663 121.803 4.45383ZM122.003 1.88047C122.003 2.42223 122.303 2.69311 122.803 2.69311C123.303 2.69311 123.603 2.42223 123.603 1.88047C123.603 1.33871 123.303 1.06783 122.803 1.06783C122.303 1.06783 122.003 1.33871 122.003 1.88047Z" fill="white"/>
<path d="M128.805 1.33871V2.55767H129.405C130.305 2.55767 130.905 3.23487 130.905 4.31839C130.905 5.53735 130.305 6.21455 129.305 6.21455C128.805 6.21455 128.205 5.94367 127.805 5.53735L128.105 4.72471C128.405 5.13103 128.905 5.26647 129.205 5.26647C129.705 5.26647 130.105 4.86015 130.105 4.18295C130.105 3.64119 129.805 3.23487 129.205 3.23487C128.905 3.23487 128.405 3.23487 128.105 3.37031V0.390625H130.705V1.20327H128.805V1.33871Z" fill="white"/>
</g>
<defs>
<clipPath id="clip0_1_2861">
<rect width="202" height="60" fill="white" transform="translate(0 0.390625)"/>
</clipPath>
</defs>
</svg>
