<svg width="163" height="60" viewBox="0 0 163 60" fill="none" xmlns="http://www.w3.org/2000/svg">
<g clip-path="url(#clip0_1_3494)">
<path d="M0.696864 13.2331L16.3066 28.9822L13.101 32.2993L0.836237 19.9508C0.30662 19.4212 0 18.6686 0 17.916V13.5118C0 13.1494 0.445993 12.9822 0.696864 13.2331Z" fill="#51DFCF"/>
<path opacity="0.85" d="M6.91171 38.8512L16.2776 28.9836L13.2671 25.9453L7.77582 31.5202C6.85596 32.468 6.32634 33.7223 6.29847 35.0324L6.21484 38.5446C6.21484 38.9349 6.66084 39.13 6.91171 38.8512Z" fill="#51DFCF"/>
<path d="M34.8167 10.7247L19.0397 26.2509L15.7227 23.0732L28.1268 10.8362C28.6565 10.3066 29.4091 10 30.1617 10L34.538 10.0279C34.9004 10.0279 35.0955 10.446 34.8167 10.7247Z" fill="#51DFCF"/>
<path opacity="0.85" d="M9.19857 16.8297L19.0383 26.2513L22.0766 23.2408L16.5017 17.7217C15.554 16.8018 14.3275 16.2722 12.9895 16.2164L9.47732 16.1328C9.11495 16.1328 8.91983 16.5788 9.19857 16.8297Z" fill="#51DFCF"/>
<path d="M36.7415 49.3051L21.0202 33.6953L17.7031 36.873L30.0516 49.1378C30.5812 49.6674 31.3338 49.9741 32.0864 49.9741H36.4627C36.8251 50.0019 37.0202 49.5559 36.7415 49.3051Z" fill="#51DFCF"/>
<path opacity="0.85" d="M11.1517 43.089L21.0193 33.6953L24.0576 36.7058L18.4827 42.1971C17.535 43.1169 16.2806 43.6465 14.9705 43.6744L11.4304 43.7859C11.0681 43.7859 10.873 43.3399 11.1517 43.089Z" fill="#51DFCF"/>
<path d="M39.2761 15.1549L23.75 30.9598L26.9277 34.249L39.1646 21.8448C39.6943 21.3152 40.0009 20.5626 40.0009 19.81L39.973 15.4337C39.973 15.0713 39.527 14.9041 39.2761 15.1549Z" fill="#51DFCF"/>
<path opacity="0.85" d="M33.1437 40.7999L23.75 30.9602L26.7605 27.9219L32.2796 33.4968C33.1995 34.4445 33.7291 35.671 33.7848 37.009L33.8685 40.5212C33.8685 40.8835 33.4225 41.0508 33.1437 40.7999Z" fill="#51DFCF"/>
</g>
<path d="M55.07 39H52.58C52.16 39 51.95 38.79 51.95 38.37V20.34C51.95 19.92 52.16 19.71 52.58 19.71H54.83C55.25 19.71 55.53 19.85 55.67 20.13L61.73 31.5H61.85V20.34C61.85 19.92 62.06 19.71 62.48 19.71H64.97C65.39 19.71 65.6 19.92 65.6 20.34V38.37C65.6 38.79 65.39 39 64.97 39H62.78C62.34 39 62.02 38.8 61.82 38.4L55.82 27.24H55.7V38.37C55.7 38.79 55.49 39 55.07 39ZM80.4788 39H73.8488C72.2688 39 71.0488 38.58 70.1888 37.74C69.3288 36.9 68.8988 35.69 68.8988 34.11V28.59C68.8988 27.01 69.3288 25.8 70.1888 24.96C71.0488 24.12 72.2688 23.7 73.8488 23.7H76.2188C77.7988 23.7 79.0188 24.12 79.8788 24.96C80.7388 25.8 81.1688 27.01 81.1688 28.59V32.4C81.1688 32.82 80.9588 33.03 80.5388 33.03H73.0088C72.7688 33.03 72.6488 33.14 72.6488 33.36V34.02C72.6488 34.64 72.7788 35.09 73.0388 35.37C73.3188 35.63 73.7788 35.76 74.4188 35.76H80.4788C80.8988 35.76 81.1088 35.98 81.1088 36.42V38.4C81.1088 38.62 81.0588 38.78 80.9588 38.88C80.8788 38.96 80.7188 39 80.4788 39ZM73.0088 30.48H77.0888C77.3088 30.48 77.4188 30.37 77.4188 30.15V28.71C77.4188 28.07 77.2888 27.62 77.0288 27.36C76.7688 27.1 76.3188 26.97 75.6788 26.97H74.4188C73.7788 26.97 73.3288 27.1 73.0688 27.36C72.8088 27.62 72.6788 28.07 72.6788 28.71V30.15C72.6788 30.37 72.7888 30.48 73.0088 30.48ZM89.813 39H84.113C83.713 39 83.513 38.79 83.513 38.37V36.45C83.513 36.23 83.553 36.08 83.633 36C83.713 35.9 83.873 35.85 84.113 35.85H89.123C90.103 35.85 90.593 35.55 90.593 34.95V34.8C90.593 34.32 90.183 33.86 89.363 33.42L86.393 31.77C85.373 31.25 84.623 30.69 84.143 30.09C83.663 29.49 83.423 28.72 83.423 27.78C83.423 26.38 83.793 25.35 84.533 24.69C85.273 24.03 86.433 23.7 88.013 23.7H93.023C93.423 23.7 93.623 23.91 93.623 24.33V26.28C93.623 26.5 93.583 26.66 93.503 26.76C93.423 26.84 93.263 26.88 93.023 26.88H88.853C87.873 26.88 87.383 27.13 87.383 27.63V27.78C87.383 28.22 87.813 28.67 88.673 29.13L91.703 30.93C92.743 31.49 93.473 32.07 93.893 32.67C94.313 33.25 94.523 34.02 94.523 34.98C94.523 37.66 92.953 39 89.813 39ZM97.5073 27H96.3073C96.0673 27 95.8973 26.96 95.7973 26.88C95.7173 26.8 95.6773 26.64 95.6773 26.4V24.33C95.6773 23.91 95.8873 23.7 96.3073 23.7H97.5073C97.7273 23.7 97.8373 23.59 97.8373 23.37V20.52C97.8373 20.1 98.0573 19.89 98.4973 19.89H101.017C101.437 19.89 101.647 20.1 101.647 20.52V23.37C101.647 23.59 101.767 23.7 102.007 23.7H104.347C104.767 23.7 104.977 23.91 104.977 24.33V26.4C104.977 26.62 104.927 26.78 104.827 26.88C104.747 26.96 104.587 27 104.347 27H102.007C101.767 27 101.647 27.11 101.647 27.33V33.96C101.647 34.58 101.787 35.03 102.067 35.31C102.347 35.57 102.807 35.7 103.447 35.7H104.647C105.067 35.7 105.277 35.91 105.277 36.33V38.4C105.277 38.62 105.227 38.78 105.127 38.88C105.047 38.96 104.887 39 104.647 39H102.817C101.237 39 100.007 38.58 99.1273 37.74C98.2673 36.9 97.8373 35.7 97.8373 34.14V27.33C97.8373 27.11 97.7273 27 97.5073 27ZM112.194 35.82H115.554C116.214 35.82 116.684 35.69 116.964 35.43C117.264 35.15 117.414 34.7 117.414 34.08V32.34C117.414 31.72 117.264 31.28 116.964 31.02C116.664 30.76 116.174 30.63 115.494 30.63H112.194C111.974 30.63 111.864 30.74 111.864 30.96V35.49C111.864 35.71 111.974 35.82 112.194 35.82ZM112.194 27.54H115.254C115.894 27.54 116.364 27.41 116.664 27.15C116.964 26.87 117.114 26.42 117.114 25.8V24.63C117.114 24.01 116.964 23.57 116.664 23.31C116.384 23.03 115.924 22.89 115.284 22.89H112.194C111.974 22.89 111.864 23 111.864 23.22V27.21C111.864 27.43 111.974 27.54 112.194 27.54ZM108.054 38.37V20.34C108.054 19.92 108.264 19.71 108.684 19.71H115.884C117.464 19.71 118.684 20.13 119.544 20.97C120.404 21.81 120.834 23.01 120.834 24.57V25.8C120.834 27.5 120.044 28.6 118.464 29.1C119.264 29.22 119.904 29.55 120.384 30.09C120.864 30.61 121.104 31.36 121.104 32.34V34.14C121.104 35.7 120.674 36.9 119.814 37.74C118.954 38.58 117.744 39 116.184 39H108.684C108.264 39 108.054 38.79 108.054 38.37ZM126.884 44.07H124.964C124.564 44.07 124.364 43.85 124.364 43.41V41.4C124.364 40.96 124.564 40.74 124.964 40.74H125.594C126.854 40.74 127.704 40.56 128.144 40.2C128.604 39.86 128.954 39.19 129.194 38.19H127.604C127.224 38.19 126.974 37.98 126.854 37.56L123.344 24.33C123.224 23.91 123.374 23.7 123.794 23.7H126.464C126.864 23.7 127.114 23.91 127.214 24.33L129.794 35.4H129.914L132.464 24.33C132.544 23.91 132.794 23.7 133.214 23.7H135.734C136.234 23.7 136.434 23.92 136.334 24.36L132.674 39C132.234 40.66 131.554 41.92 130.634 42.78C129.714 43.64 128.464 44.07 126.884 44.07ZM138.845 27H137.645C137.405 27 137.235 26.96 137.135 26.88C137.055 26.8 137.015 26.64 137.015 26.4V24.33C137.015 23.91 137.225 23.7 137.645 23.7H138.845C139.065 23.7 139.175 23.59 139.175 23.37V20.52C139.175 20.1 139.395 19.89 139.835 19.89H142.355C142.775 19.89 142.985 20.1 142.985 20.52V23.37C142.985 23.59 143.105 23.7 143.345 23.7H145.685C146.105 23.7 146.315 23.91 146.315 24.33V26.4C146.315 26.62 146.265 26.78 146.165 26.88C146.085 26.96 145.925 27 145.685 27H143.345C143.105 27 142.985 27.11 142.985 27.33V33.96C142.985 34.58 143.125 35.03 143.405 35.31C143.685 35.57 144.145 35.7 144.785 35.7H145.985C146.405 35.7 146.615 35.91 146.615 36.33V38.4C146.615 38.62 146.565 38.78 146.465 38.88C146.385 38.96 146.225 39 145.985 39H144.155C142.575 39 141.345 38.58 140.465 37.74C139.605 36.9 139.175 35.7 139.175 34.14V27.33C139.175 27.11 139.065 27 138.845 27ZM160.371 39H153.741C152.161 39 150.941 38.58 150.081 37.74C149.221 36.9 148.791 35.69 148.791 34.11V28.59C148.791 27.01 149.221 25.8 150.081 24.96C150.941 24.12 152.161 23.7 153.741 23.7H156.111C157.691 23.7 158.911 24.12 159.771 24.96C160.631 25.8 161.061 27.01 161.061 28.59V32.4C161.061 32.82 160.851 33.03 160.431 33.03H152.901C152.661 33.03 152.541 33.14 152.541 33.36V34.02C152.541 34.64 152.671 35.09 152.931 35.37C153.211 35.63 153.671 35.76 154.311 35.76H160.371C160.791 35.76 161.001 35.98 161.001 36.42V38.4C161.001 38.62 160.951 38.78 160.851 38.88C160.771 38.96 160.611 39 160.371 39ZM152.901 30.48H156.981C157.201 30.48 157.311 30.37 157.311 30.15V28.71C157.311 28.07 157.181 27.62 156.921 27.36C156.661 27.1 156.211 26.97 155.571 26.97H154.311C153.671 26.97 153.221 27.1 152.961 27.36C152.701 27.62 152.571 28.07 152.571 28.71V30.15C152.571 30.37 152.681 30.48 152.901 30.48Z" fill="white"/>
<defs>
<clipPath id="clip0_1_3494">
<rect width="40" height="40" fill="white" transform="translate(0 10)"/>
</clipPath>
</defs>
</svg>
