<svg width="40" height="40" viewBox="0 0 40 40" fill="none" xmlns="http://www.w3.org/2000/svg">
<g clip-path="url(#clip0_3450_121)">
<path d="M0.696864 3.23306L16.3066 18.9822L13.101 22.2993L0.836237 9.95083C0.30662 9.42121 0 8.6686 0 7.91599V3.51181C0 3.14944 0.445993 2.98219 0.696864 3.23306Z" fill="#51DFCF"/>
<path opacity="0.85" d="M6.91171 28.8512L16.2776 18.9836L13.2671 15.9453L7.77582 21.5202C6.85596 22.468 6.32634 23.7223 6.29847 25.0324L6.21484 28.5446C6.21484 28.9349 6.66084 29.13 6.91171 28.8512Z" fill="#51DFCF"/>
<path d="M34.8167 0.724739L19.0397 16.2509L15.7227 13.0732L28.1268 0.836237C28.6565 0.30662 29.4091 0 30.1617 0L34.538 0.0278746C34.9004 0.0278746 35.0955 0.445993 34.8167 0.724739Z" fill="#51DFCF"/>
<path opacity="0.85" d="M9.19857 6.82968L19.0383 16.2513L22.0766 13.2408L16.5017 7.72166C15.554 6.8018 14.3275 6.27219 12.9895 6.21644L9.47732 6.13281C9.11495 6.13281 8.91983 6.57881 9.19857 6.82968Z" fill="#51DFCF"/>
<path d="M36.7415 39.3051L21.0202 23.6953L17.7031 26.873L30.0516 39.1378C30.5812 39.6674 31.3338 39.9741 32.0864 39.9741H36.4627C36.8251 40.0019 37.0202 39.5559 36.7415 39.3051Z" fill="#51DFCF"/>
<path opacity="0.85" d="M11.1517 33.089L21.0193 23.6953L24.0576 26.7058L18.4827 32.1971C17.535 33.1169 16.2806 33.6465 14.9705 33.6744L11.4304 33.7859C11.0681 33.7859 10.873 33.3399 11.1517 33.089Z" fill="#51DFCF"/>
<path d="M39.2761 5.15493L23.75 20.9598L26.9277 24.249L39.1646 11.8448C39.6943 11.3152 40.0009 10.5626 40.0009 9.80999L39.973 5.43368C39.973 5.07131 39.527 4.90406 39.2761 5.15493Z" fill="#51DFCF"/>
<path opacity="0.85" d="M33.1437 30.7999L23.75 20.9602L26.7605 17.9219L32.2796 23.4968C33.1995 24.4445 33.7291 25.671 33.7848 27.009L33.8685 30.5212C33.8685 30.8835 33.4225 31.0508 33.1437 30.7999Z" fill="#51DFCF"/>
</g>
<defs>
<clipPath id="clip0_3450_121">
<rect width="40" height="40" fill="white"/>
</clipPath>
</defs>
</svg>
